# xmcd CD database file
#
# Track frame offsets:
#	150
#	22976
#	41674
#	62827
#	84431
#	108412
#	129498
#	150156
#	170745
#	186633
#
# Disc length: 2884 seconds
#
# Revision: 2
# Processed by: cddbd v1.5.2PL0 Copyright (c) Steve Scherf et al.
# Submitted via: jetAudio 7
#
DISCID=7e0b420a
DTITLE=張學友 - 吻別
DYEAR=1900
DGENRE=Pop
TTITLE0=吻別 
TTITLE1=情網 
TTITLE2=Linda
TTITLE3=一路上有你 
TTITLE4=你給我的愛最多
TTITLE5=每天愛你多一些
TTITLE6=相信她‧關心她 
TTITLE7=戀愛的人都一樣 
TTITLE8=擁抱陽光 
TTITLE9=秋意濃 
EXTD=吻別
EXTT0=
EXTT1=
EXTT2=
EXTT3=
EXTT4=
EXTT5=
EXTT6=
EXTT7=
EXTT8=
EXTT9=
PLAYORDER=
